HIERARCHY
ROOT Hips
{
	OFFSET -44.602631 92.727097 387.457703
	CHANNELS 6 Xposition Yposition Zposition Zrotation Yrotation Xrotation 
	JOINT LeftUpLeg
	{
		OFFSET 0.103457 1.857834 10.548504
		CHANNELS 3 Zrotation Yrotation Xrotation
		JOINT LeftLeg
		{
			OFFSET 43.499996 -0.000046 0.000000
			CHANNELS 3 Zrotation Yrotation Xrotation
			JOINT LeftFoot
			{
				OFFSET 42.372192 0.000027 0.000002
				CHANNELS 3 Zrotation Yrotation Xrotation
				JOINT LeftToe
				{
					OFFSET 17.299994 -0.000003 -0.000001
					CHANNELS 3 Zrotation Yrotation Xrotation
					End Site
					{
						OFFSET 0.000000 0.000000 0.000000
					}
				}
			}
		}
	}
	JOINT RightUpLeg
	{
		OFFSET 0.103456 1.857832 -10.548504
		CHANNELS 3 Zrotation Yrotation Xrotation
		JOINT RightLeg
		{
			OFFSET 43.500046 -0.000011 0.000010
			CHANNELS 3 Zrotation Yrotation Xrotation
			JOINT RightFoot
			{
				OFFSET 42.372261 -0.000034 0.000021
				CHANNELS 3 Zrotation Yrotation Xrotation
				JOINT RightToe
				{
					OFFSET 17.300011 0.000001 0.000002
					CHANNELS 3 Zrotation Yrotation Xrotation
					End Site
					{
						OFFSET 0.000000 0.000000 0.000000
					}
				}
			}
		}
	}
	JOINT Spine
	{
		OFFSET 6.901965 -2.603721 0.000001
		CHANNELS 3 Zrotation Yrotation Xrotation
		JOINT Spine1
		{
			OFFSET 12.588100 0.000000 -0.000000
			CHANNELS 3 Zrotation Yrotation Xrotation
			JOINT Spine2
			{
				OFFSET 12.343206 0.000005 0.000000
				CHANNELS 3 Zrotation Yrotation Xrotation
				JOINT Neck
				{
					OFFSET 25.832893 -0.000008 0.000000
					CHANNELS 3 Zrotation Yrotation Xrotation
					JOINT Head
					{
						OFFSET 11.766617 0.000009 0.000001
						CHANNELS 3 Zrotation Yrotation Xrotation
						End Site
						{
							OFFSET 0.000000 0.000000 0.000000
						}
					}
				}
				JOINT LeftShoulder
				{
					OFFSET 19.745899 -1.480394 6.000106
					CHANNELS 3 Zrotation Yrotation Xrotation
					JOINT LeftArm
					{
						OFFSET 11.284122 -0.000030 -0.000014
						CHANNELS 3 Zrotation Yrotation Xrotation
						JOINT LeftForeArm
						{
							OFFSET 33.000050 0.000020 0.000016
							CHANNELS 3 Zrotation Yrotation Xrotation
							JOINT LeftHand
							{
								OFFSET 25.200014 -0.000003 0.000011
								CHANNELS 3 Zrotation Yrotation Xrotation
								End Site
								{
									OFFSET 0.000000 0.000000 0.000000
								}
							}
						}
					}
				}
				JOINT RightShoulder
				{
					OFFSET 19.746094 -1.480381 -6.000073
					CHANNELS 3 Zrotation Yrotation Xrotation
					JOINT RightArm
					{
						OFFSET 11.284140 -0.000016 -0.000006
						CHANNELS 3 Zrotation Yrotation Xrotation
						JOINT RightForeArm
						{
							OFFSET 33.000088 0.000015 0.000002
							CHANNELS 3 Zrotation Yrotation Xrotation
							JOINT RightHand
							{
								OFFSET 25.199776 0.000133 0.000416
								CHANNELS 3 Zrotation Yrotation Xrotation
								End Site
								{
									OFFSET 0.000000 0.000000 0.000000
								}
							}
						}
					}
				}
			}
		}
	}
}
MOTION
Frames: 15
Frame Time: 0.033333
-44.602631 92.727097 387.457703 89.291896 4.227585 92.750055 -177.357883 -4.161304 175.111297 -14.401285 -2.460341 -6.381179 84.836400 3.798451 -3.756456 21.454550 0.003092 -0.000002 -177.762599 -2.352709 177.788991 -13.959853 3.487816 12.249174 83.385442 -8.680151 -0.231769 21.454560 -0.003105 -0.000015 7.126165 0.288426 -0.058714 4.211125 0.578736 -0.106976 3.893009 0.578217 -0.110469 -2.392132 -4.974089 -3.233074 -8.297608 5.982048 -6.384407 -90.417047 -79.880572 -92.243528 -4.207892 -0.612375 -5.092821 -18.279278 -18.629390 1.294503 13.440279 4.764753 -13.241679 39.777294 88.504587 -138.565755 7.440201 -6.507715 6.502951 -19.566928 21.914221 -1.541022 12.890042 -0.229109 0.847276 
-44.540699 92.729492 387.510803 89.291896 4.189061 92.731675 -177.354891 -4.112200 175.139793 -14.386385 -2.451351 -6.418614 84.849644 3.826199 -3.747915 21.454551 0.003105 0.000001 -177.762613 -2.310701 177.819003 -13.959868 3.482563 12.217590 83.394445 -8.650658 -0.193869 21.454558 -0.003110 -0.000015 7.126163 0.299451 -0.067335 4.211124 0.601073 -0.123830 3.893008 0.600452 -0.127448 -2.265972 -5.015520 -3.210131 -8.402016 6.021496 -6.384407 -90.607118 -79.916772 -92.048458 -4.188074 -0.609652 -4.947292 -18.244622 -18.654749 1.294512 13.326882 4.839751 -13.223858 42.886003 88.378399 -135.469234 7.592194 -6.538964 6.479143 -19.580177 21.914221 -1.541027 12.896545 -0.214288 0.872658 
-44.479370 92.731873 387.566101 89.291896 4.152371 92.719613 -177.343567 -4.067597 175.151964 -14.364525 -2.443792 -6.437350 84.862143 3.841753 -3.735010 21.454551 0.003092 0.000000 -177.758965 -2.271195 177.857197 -13.959860 3.472558 12.185465 83.403378 -8.620267 -0.153745 21.454558 -0.003116 -0.000017 7.126171 0.310157 -0.076749 4.211131 0.622809 -0.142254 3.893003 0.622078 -0.146020 -2.209774 -5.052710 -3.189414 -8.450687 6.058590 -6.386533 -90.774430 -79.962124 -91.875531 -4.137034 -0.593685 -4.888848 -18.248529 -18.661089 1.294507 13.237179 4.925045 -13.196187 42.591397 88.336933 -135.764326 7.590590 -6.577862 6.496434 -19.588808 21.914223 -1.541027 12.917898 -0.198514 0.867531 
-44.420570 92.733681 387.620697 89.286903 4.124802 92.710611 -177.326724 -4.030906 175.157647 -14.349295 -2.439981 -6.448362 84.876678 3.852301 -3.720700 21.454555 0.003087 -0.000001 -177.747204 -2.238611 177.897686 -13.959857 3.457144 12.154623 83.411302 -8.590378 -0.112057 21.454558 -0.003115 -0.000017 7.126166 0.319903 -0.082178 4.214222 0.642492 -0.152767 3.896103 0.641696 -0.156640 -2.184052 -5.068667 -3.195999 -8.466663 6.077980 -6.403419 -90.869247 -80.030897 -91.773584 -4.070541 -0.565878 -4.916494 -18.308942 -18.645761 1.294500 13.248091 4.964252 -13.125326 41.263089 88.335875 -137.088413 7.548814 -6.618169 6.512453 -19.591300 21.914221 -1.541027 12.941001 -0.187909 0.863046 
-44.364201 92.734810 387.670898 89.280790 4.106132 92.697702 -177.306916 -4.000112 175.150926 -14.342837 -2.439526 -6.452396 84.893111 3.858301 -3.705399 21.454553 0.003089 -0.000002 -177.734254 -2.211008 177.933641 -13.966902 3.438129 12.124835 83.418965 -8.561016 -0.069681 21.454557 -0.003119 -0.000019 7.126174 0.328119 -0.084109 4.221261 0.658994 -0.156323 3.903139 0.658176 -0.160301 -2.191532 -5.056284 -3.211438 -8.444673 6.070412 -6.411776 -90.920903 -80.068921 -91.717979 -4.069818 -0.540006 -4.955038 -18.348895 -18.640139 1.294512 13.326440 5.026896 -13.023500 39.805338 88.352656 -138.541781 7.500342 -6.655324 6.516976 -19.595722 21.910472 -1.541032 12.962581 -0.188734 0.859900 
-44.311470 92.735512 387.717712 89.274356 4.091746 92.685407 -177.287833 -3.975406 175.137429 -14.343035 -2.441330 -6.450135 84.910965 3.859704 -3.689437 21.454551 0.003088 0.000001 -177.721864 -2.188509 177.966384 -13.978535 3.415823 12.098008 83.426178 -8.533626 -0.027213 21.454560 -0.003115 -0.000020 7.126178 0.334800 -0.085537 4.228551 0.672376 -0.157954 3.910436 0.671545 -0.162003 -2.217506 -5.032197 -3.226402 -8.395952 6.055995 -6.413131 -90.936654 -80.088292 -91.700269 -4.105315 -0.518467 -4.991636 -18.372719 -18.638295 1.294509 13.389451 5.096239 -12.919622 38.494055 88.375865 -139.848711 7.453111 -6.692869 6.522224 -19.606572 21.896152 -1.541030 12.986773 -0.183325 0.860115 
-44.262119 92.735992 387.761688 89.267485 4.078942 92.677730 -177.272150 -3.956104 175.122895 -14.349066 -2.446615 -6.442856 84.930308 3.858665 -3.673226 21.454553 0.003080 -0.000000 -177.710061 -2.170001 177.998118 -13.990679 3.392444 12.074813 83.432407 -8.508978 0.014266 21.454558 -0.003110 -0.000017 7.126166 0.340238 -0.086739 4.231718 0.683277 -0.158702 3.913605 0.682441 -0.162809 -2.242510 -4.992470 -3.240025 -8.336030 6.032945 -6.405310 -90.913274 -80.102109 -91.722385 -4.157108 -0.502435 -5.013083 -18.379207 -18.640829 1.294501 13.420453 5.164858 -12.823769 37.738267 88.397579 -140.601206 7.420672 -6.726152 6.532198 -19.620909 21.885818 -1.541031 13.006531 -0.202851 0.837103 
-44.215130 92.736420 387.802612 89.260614 4.066842 92.677348 -177.260621 -3.939604 175.109467 -14.359578 -2.452886 -6.432311 84.950662 3.854883 -3.657217 21.454550 0.003091 -0.000000 -177.699748 -2.152803 178.027692 -14.002590 3.371308 12.055447 83.437543 -8.487426 0.053775 21.454558 -0.003110 -0.000016 7.126167 0.344718 -0.087849 4.233280 0.692254 -0.159540 3.915155 0.691417 -0.163706 -2.250348 -4.940684 -3.251016 -8.282897 6.003055 -6.389201 -90.862246 -80.109499 -91.773147 -4.222254 -0.493815 -5.010158 -18.367542 -18.648452 1.294502 13.416832 5.228488 -12.741003 37.788339 88.412919 -140.551168 7.410708 -6.740167 6.501628 -19.615822 21.887121 -1.541030 13.012397 -0.285300 0.810794 
-44.170479 92.736877 387.839386 89.253777 4.054822 92.680449 -177.254283 -3.925401 175.098893 -14.374268 -2.459597 -6.419565 84.971583 3.849665 -3.640969 21.454551 0.003083 -0.000002 -177.691469 -2.135801 178.053907 -14.013199 3.354623 12.040630 83.441197 -8.469731 0.090345 21.454557 -0.003108 -0.000017 7.126169 0.348665 -0.088955 4.234506 0.700232 -0.161483 3.916378 0.699357 -0.165703 -2.272867 -4.886861 -3.254420 -8.217182 5.969961 -6.363788 -90.805760 -80.104909 -91.830582 -4.293646 -0.492666 -4.984334 -18.351970 -18.661474 1.294505 13.402434 5.284931 -12.689658 38.104574 88.426791 -140.235668 7.404685 -6.746321 6.460339 -19.603251 21.892232 -1.541023 13.007641 -0.357066 0.828471 
-44.128078 92.737427 387.872009 89.247001 4.042173 92.684683 -177.252206 -3.912595 175.091626 -14.392056 -2.466233 -6.405913 84.992408 3.844046 -3.623313 21.454551 0.003092 -0.000001 -177.685691 -2.117491 178.074260 -14.021474 3.345794 12.030979 83.443028 -8.456663 0.122463 21.454558 -0.003110 -0.000017 7.126157 0.352408 -0.090214 4.235418 0.707739 -0.165844 3.917291 0.706866 -0.170119 -2.307555 -4.834796 -3.246308 -8.142957 5.934512 -6.326673 -90.757061 -80.089084 -91.881160 -4.362220 -0.500421 -4.922944 -18.340687 -18.681355 1.294497 13.376261 5.334252 -12.706307 38.656910 88.437522 -139.684513 7.400742 -6.746650 6.416537 -19.588470 21.899053 -1.541024 12.998380 -0.377157 0.907073 
-44.087410 92.738052 387.901215 89.240260 4.029766 92.687750 -177.251906 -3.900298 175.083375 -14.409413 -2.472400 -6.392737 85.012865 3.839013 -3.604220 21.454553 0.003099 0.000001 -177.681006 -2.096495 178.081610 -14.026593 3.342403 12.027053 83.443854 -8.448706 0.149441 21.454558 -0.003106 -0.000019 7.126164 0.355950 -0.091704 4.236066 0.715046 -0.167768 3.917948 0.714145 -0.172087 -2.354456 -4.803571 -3.227684 -8.059983 5.911618 -6.288695 -90.723285 -80.066011 -91.917366 -4.421595 -0.513847 -4.846596 -18.341534 -18.704996 1.294495 13.350521 5.328962 -12.757456 39.196629 88.449338 -139.146062 7.386229 -6.740806 6.374677 -19.571489 21.908264 -1.541024 12.989249 -0.343995 1.031502 
-44.048481 92.738823 387.927399 89.233607 4.017689 92.687299 -177.252780 -3.888003 175.075575 -14.424466 -2.477844 -6.381138 85.032262 3.835326 -3.584722 21.454551 0.003095 -0.000000 -177.677727 -2.075505 178.084041 -14.029208 3.341207 12.024784 83.443198 -8.442475 0.173632 21.454558 -0.003111 -0.000018 7.126171 0.359445 -0.093324 4.236484 0.722041 -0.168648 3.918360 0.721124 -0.173008 -2.412528 -4.796910 -3.209413 -7.971676 5.898726 -6.261232 -90.705561 -80.043629 -91.937372 -4.461581 -0.529541 -4.794705 -18.374058 -18.726856 1.294494 13.369741 5.216455 -12.782129 39.561914 88.465580 -138.781289 7.357491 -6.730005 6.338808 -19.555535 21.920080 -1.541039 12.982441 -0.265046 1.146939 
-44.012249 92.739693 387.949585 89.225377 4.005601 92.679465 -177.254242 -3.878289 175.061054 -14.437570 -2.483809 -6.371127 85.051039 3.832336 -3.565403 21.454553 0.003084 -0.000001 -177.676484 -2.058192 178.077962 -14.030829 3.340672 12.022205 83.439469 -8.436589 0.195750 21.454557 -0.003104 -0.000017 7.126174 0.362934 -0.095060 4.236721 0.729008 -0.168881 3.918592 0.728068 -0.173281 -2.458574 -4.798380 -3.187900 -7.903809 5.884505 -6.233548 -90.706893 -80.028848 -91.937365 -4.480621 -0.545365 -4.776869 -18.417805 -18.748077 1.294523 13.368322 5.040434 -12.762839 39.552096 88.487286 -138.790728 7.309833 -6.713928 6.322540 -19.543681 21.925723 -1.541034 12.994721 -0.144592 1.198091 
-43.978588 92.740730 387.966705 89.215610 3.993677 92.661475 -177.257356 -3.865206 175.034075 -14.450008 -2.476949 -6.361363 85.068155 3.829237 -3.552183 21.454553 0.003096 0.000000 -177.679899 -2.044396 178.067157 -14.032680 3.340701 12.017049 83.432741 -8.429313 0.215513 21.454558 -0.003112 -0.000018 7.126169 0.366738 -0.096770 4.236794 0.736875 -0.168887 3.918676 0.735956 -0.173322 -2.493893 -4.806408 -3.166671 -7.852805 5.876320 -6.210529 -90.731243 -80.021410 -91.913541 -4.482429 -0.554648 -4.798708 -18.470433 -18.773801 1.294508 13.293831 4.869111 -12.692326 39.476393 88.502757 -138.865614 7.258763 -6.693491 6.341257 -19.553339 21.933985 -1.541015 13.018042 -0.061907 1.222369 
-43.944839 92.741951 387.977386 89.207953 3.982122 92.646892 -177.264022 -3.843592 175.018939 -14.461293 -2.460311 -6.358317 85.081986 3.827903 -3.542892 21.454551 0.003092 -0.000002 -177.687330 -2.026492 178.067376 -14.036133 3.341201 12.007156 83.425194 -8.419315 0.232764 21.454560 -0.003120 -0.000018 7.126171 0.370511 -0.098243 4.236756 0.744538 -0.169075 3.918633 0.743632 -0.173552 -2.510838 -4.813363 -3.149165 -7.825209 5.867444 -6.191586 -90.756145 -80.031744 -91.887436 -4.463452 -0.558860 -4.845413 -18.534232 -18.814280 1.297403 13.253320 4.799721 -12.554642 39.886017 88.504854 -138.457456 7.226648 -6.672224 6.388974 -19.577209 21.968684 -1.541020 13.031151 -0.092826 1.128403 
